<svg width="31" height="31" viewBox="0 0 31 31" fill="none" xmlns="http://www.w3.org/2000/svg">
<path d="M30.125 15.5C30.125 15.8232 29.9966 16.1332 29.768 16.3618C29.5395 16.5903 29.2295 16.7188 28.9062 16.7188H16.7188V28.9062C16.7188 29.2295 16.5903 29.5395 16.3618 29.768C16.1332 29.9966 15.8232 30.125 15.5 30.125C15.1768 30.125 14.8668 29.9966 14.6382 29.768C14.4097 29.5395 14.2812 29.2295 14.2812 28.9062V16.7188H2.09375C1.77052 16.7188 1.46052 16.5903 1.23196 16.3618C1.0034 16.1332 0.875 15.8232 0.875 15.5C0.875 15.1768 1.0034 14.8668 1.23196 14.6382C1.46052 14.4097 1.77052 14.2812 2.09375 14.2812H14.2812V2.09375C14.2812 1.77052 14.4097 1.46052 14.6382 1.23196C14.8668 1.0034 15.1768 0.875 15.5 0.875C15.8232 0.875 16.1332 1.0034 16.3618 1.23196C16.5903 1.46052 16.7188 1.77052 16.7188 2.09375V14.2812H28.9062C29.2295 14.2812 29.5395 14.4097 29.768 14.6382C29.9966 14.8668 30.125 15.1768 30.125 15.5Z" fill="url('#paint0_linear_1_21')"></path>
<defs>
<linearGradient id="paint0_linear_1_21" x1="15.5" y1="0.875" x2="15.5" y2="30.125" gradientUnits="userSpaceOnUse">
<stop stop-color="#FBDB89"></stop>
<stop offset="1" stop-color="#F48982"></stop>
</linearGradient>
</defs>
</svg>
